HIERARCHY
ROOT Hips
{
     OFFSET 1.88212 96.90440 -13.34250
     CHANNELS 6 Xposition Yposition Zposition Zrotation Xrotation Yrotation
     JOINT Spine
     {
          OFFSET 0.00000 11.89050 0.00000
          CHANNELS 3 Zrotation Xrotation Yrotation
          JOINT Spine1
          {
               OFFSET -0.00000 25.65740 0.12766
               CHANNELS 3 Zrotation Xrotation Yrotation
               JOINT HEad
               {
                    OFFSET 0.00000 8.73416 0.01134
                    CHANNELS 3 Zrotation Xrotation Yrotation
                    End Site
                    {
                         OFFSET -0.29000 12.77420 2.51395
                    }
               }
               JOINT LeftShoulder1
               {
                    OFFSET 8.99000 -0.36225 -0.22000
                    CHANNELS 3 Zrotation Xrotation Yrotation
                    JOINT LeftArm
                    {
                         OFFSET 10.28270 -0.00338 0.32212
                         CHANNELS 3 Zrotation Xrotation Yrotation
                         JOINT LeftForeArm
                         {
                              OFFSET 32.76690 0.09914 -1.42434
                              CHANNELS 3 Zrotation Xrotation Yrotation
                              JOINT LeftHand
                              {
                                   OFFSET 27.56430 0.08536 1.02216
                                   CHANNELS 3 Zrotation Xrotation Yrotation
                                   End Site
                                   {
                                        OFFSET 16.74430 -0.60000 1.50291
                                   }
                              }
                         }
                    }
               }
               JOINT RightShoulder
               {
                    OFFSET -8.99000 -0.36225 -0.22000
                    CHANNELS 3 Zrotation Xrotation Yrotation
                    JOINT RightArm
                    {
                         OFFSET -10.28270 -0.00338 0.32212
                         CHANNELS 3 Zrotation Xrotation Yrotation
                         JOINT RightForeArm
                         {
                              OFFSET -32.89710 0.09914 -1.42434
                              CHANNELS 3 Zrotation Xrotation Yrotation
                              JOINT RightHand
                              {
                                   OFFSET -27.49210 0.08536 1.02216
                                   CHANNELS 3 Zrotation Xrotation Yrotation
                                   End Site
                                   {
                                        OFFSET -16.63120 -0.60000 1.50291
                                   }
                              }
                         }
                    }
               }
          }
     }
     JOINT LeftUpLeg
     {
          OFFSET 8.94580 -8.66707 0.10165
          CHANNELS 3 Zrotation Xrotation Yrotation
          JOINT LeftLeg
          {
               OFFSET 0.00000 -44.42270 1.37270
               CHANNELS 3 Zrotation Xrotation Yrotation
               JOINT LeftFoot
               {
                    OFFSET -0.25355 -42.09240 -1.46059
                    CHANNELS 3 Zrotation Xrotation Yrotation
                    JOINT LeftToes
                    {
                         OFFSET -0.04000 -4.41509 8.49910
                         CHANNELS 3 Zrotation Xrotation Yrotation
                         End Site
                         {
                              OFFSET 0.08000 -0.04745 9.77979
                         }
                    }
               }
          }
     }
     JOINT RightUpLeg
     {
          OFFSET -8.94580 -8.66707 0.10165
          CHANNELS 3 Zrotation Xrotation Yrotation
          JOINT RightLeg
          {
               OFFSET 0.00000 -44.42270 1.37270
               CHANNELS 3 Zrotation Xrotation Yrotation
               JOINT RightFoot
               {
                    OFFSET 0.25355 -42.09240 -1.46059
                    CHANNELS 3 Zrotation Xrotation Yrotation
                    JOINT RightToes
                    {
                         OFFSET 0.04000 -4.41509 8.49910
                         CHANNELS 3 Zrotation Xrotation Yrotation
                         End Site
                         {
                              OFFSET -0.08000 -0.13745 9.77979
                         }
                    }
               }
          }
     }
}
MOTION
Frames: 11
Frame Time: 0.01667
41.15468 90.60699 -117.14542 4.77753 -0.14915 -12.75554 -5.46327 6.09295 4.33963 -0.03495 0.07560 0.02087 -10.61416 11.21113 14.64637 -28.50529 31.44832 22.64566 -121.51025 -33.45945 -129.32100 -37.42305 47.58411 -82.36936 10.21017 0.82724 4.66181 -27.93542 32.19782 30.15283 110.15008 -27.60693 101.13896 54.69535 35.16115 88.13368 11.04894 -5.54712 -4.30659 3.98216 -17.95489 5.05992 13.68629 20.06743 -8.47294 10.67395 -0.05900 0.09757 -35.83665 -14.83659 -6.68537 -9.32075 10.32258 -27.19186 -8.41059 20.37872 12.02110 1.82477 0.05100 0.13602 -1.30739 -16.91883 -8.77621 
40.05617 87.52885 -117.62815 6.29902 -1.14855 -8.24128 -10.62240 12.83115 4.28333 -0.03578 0.07296 0.01381 -9.46303 10.18829 15.01329 -23.35226 28.34805 17.14709 -123.09390 -32.13917 -125.35970 -41.31362 49.74560 -80.27393 3.86186 15.57680 -4.74695 -23.11562 28.70565 24.32659 103.52575 -30.61965 95.38191 63.23225 34.09637 90.03787 3.98636 10.92778 2.39869 1.79527 -23.51972 2.47114 15.33383 28.35336 -10.08167 13.23372 -0.04398 0.08689 -39.65475 -16.53934 -9.93368 -10.94740 6.35593 -29.40609 -13.73379 33.32001 13.80132 3.67555 -0.02247 0.13682 -1.50630 -30.21844 -8.00177 
38.74085 83.97082 -118.43336 7.80737 -1.92918 -4.17613 -15.69600 20.12832 5.24555 -0.03102 0.06983 0.00501 -8.60213 9.09185 16.23070 -19.11606 25.24551 12.22432 -124.33421 -31.40850 -122.56818 -43.67583 52.38918 -79.92052 13.56411 -2.68183 12.25202 -19.05196 25.31014 18.93357 98.12681 -32.97089 90.56988 70.54305 33.87231 90.78705 3.28138 -0.13847 -15.52813 -0.53746 -29.82096 0.70471 18.95275 37.35782 -14.12284 15.14722 -0.02310 0.07033 -43.45319 -18.79143 -13.10339 -13.25654 1.28593 -30.52593 -21.47536 45.24118 18.76094 4.83585 -0.08432 0.07106 -7.66299 -17.89347 -3.77555 
37.36627 80.45721 -119.47927 9.28822 -2.46617 -0.55191 -20.88148 27.73509 7.22203 -0.02796 0.06117 -0.00511 -8.08052 7.80040 18.34414 -19.50287 32.12117 12.81330 -126.79459 -22.23071 -127.92140 -44.80045 55.32816 -80.81757 12.83202 8.38920 3.05923 -16.19895 32.58569 18.09360 100.18356 -37.51979 100.69414 76.49473 33.56070 90.57352 -2.84506 15.52765 -1.65273 -2.98840 -36.72809 -0.28202 25.28635 46.38761 -21.47373 16.76686 -0.00878 0.05929 -47.24443 -21.21275 -16.09737 -15.75630 -4.54808 -30.67316 -34.76184 58.21091 29.83872 6.73031 -0.04941 0.13702 -7.72194 -29.40486 -9.24097 
35.96275 76.67281 -120.77409 10.67381 -2.72339 2.61766 -26.23806 35.39849 10.23722 -0.01490 0.05282 -0.00954 -7.48311 5.50396 19.89208 -13.46716 27.55156 7.41760 -128.53627 -26.41794 -122.53117 -46.44521 56.63478 -80.39036 10.63273 3.98338 3.63294 -11.23215 27.58162 11.56369 97.11390 -38.41822 96.76503 79.76036 32.25174 94.84263 2.38997 10.22459 -10.44718 -5.35304 -44.08348 -0.54541 35.23214 54.40427 -33.06611 18.43502 0.00109 0.05423 -50.93280 -23.56475 -18.78083 -18.03748 -10.61730 -29.84283 -52.59943 66.20065 45.82343 -1.74470 -0.02312 -0.28669 1.64496 -30.73232 -11.08606 
34.67357 73.02026 -122.20697 11.88801 -2.71721 5.27230 -31.97311 42.83571 14.40570 -0.00963 0.03728 -0.01979 -6.93632 2.41731 20.92693 -8.34593 22.43999 3.25053 -129.61768 -29.29612 -118.64710 -46.88930 57.89571 -81.06834 9.78870 10.58610 -4.69746 -1.52304 30.09650 10.33675 96.31767 -45.06321 104.88124 82.29272 30.39624 96.57995 0.36726 17.57816 -3.66584 -7.89943 -50.59830 -0.79866 47.82946 59.61258 -47.23214 20.24740 0.00831 0.04312 -54.22799 -25.38360 -20.84561 -19.77723 -16.61285 -27.92031 -73.51290 70.44908 64.94746 1.23770 -0.21584 0.01882 0.97340 -33.02052 -14.86928 
33.45527 69.12931 -123.69425 12.85922 -2.49755 7.36583 -37.58992 49.65811 19.32959 0.00605 0.02968 -0.02566 -6.99711 -0.96498 21.50827 -4.12947 17.39410 -0.12478 -130.24628 -35.47050 -115.13771 -46.69595 57.74222 -85.98157 6.02577 9.77913 15.87266 1.93504 23.83998 4.22626 94.80011 -43.95543 102.42956 83.83897 29.04205 97.36619 2.52855 12.63499 -6.53490 -10.34636 -56.31853 -1.02602 60.87601 62.13157 -61.81203 22.10921 0.00998 0.02638 -57.03386 -26.66795 -22.11146 -20.90488 -22.47890 -24.83809 -95.53806 72.26478 84.45136 1.32501 -0.15546 -0.01741 4.61389 -34.63860 -15.64713 
32.37667 65.53235 -125.14586 13.55797 -2.12770 8.89640 -43.27869 55.81103 24.88975 0.01084 0.01879 -0.03670 -7.60628 -4.50617 21.74662 -1.30808 12.28431 -2.62807 -130.46695 -39.33859 -112.59251 -45.82653 57.86237 -89.25819 4.53741 10.61291 7.77374 11.54873 21.45249 5.06927 90.95296 -51.32710 106.82329 84.37524 28.43154 98.18991 -0.31663 15.11759 -0.99261 -12.43445 -61.18784 -1.15445 71.58507 62.67567 -74.01857 23.87453 0.00750 0.00864 -59.23835 -27.29611 -22.62757 -21.38130 -28.22626 -20.58932 -117.14524 72.27636 103.25579 4.58175 -0.12399 -0.01033 1.38231 -51.34047 -20.33467 
31.32734 61.88141 -126.49714 13.96916 -1.69450 9.87439 -48.99779 61.42767 30.78078 0.03309 0.01739 -0.04731 -7.54949 -8.74275 21.39161 0.36492 7.11681 -4.33129 -130.75958 -41.86968 -110.75118 -44.71165 57.89449 -91.23407 5.85380 10.76526 9.63657 12.17783 14.99110 0.34965 90.38914 -49.01331 105.77190 83.25259 28.54456 99.28127 -0.99273 10.52993 -1.37529 -13.50722 -65.45361 -1.80485 78.78262 63.30843 -82.77840 25.36651 0.00331 -0.00330 -60.88312 -27.59454 -22.52066 -21.23677 -33.90168 -15.28478 -136.29056 70.68756 119.42308 8.26579 -0.08313 -0.02450 -8.57649 -58.66417 -22.76873 
30.38806 58.62112 -127.75613 14.11935 -1.24797 10.35276 -54.16220 65.37798 36.24373 0.00120 -0.07861 -0.05483 -6.50838 -12.46923 20.92541 1.42646 3.25716 -5.27337 -131.05936 -43.62288 -109.31937 -43.60026 57.96595 -92.55117 5.10206 10.80915 4.56083 12.40687 10.05601 -3.24663 89.67697 -46.66786 104.93475 81.93517 29.25096 103.72400 -3.07841 11.32119 -0.14087 -13.67932 -68.96937 -2.96304 83.10090 64.47416 -88.51380 26.49866 0.00020 -0.00778 -62.10286 -27.50154 -22.01335 -20.52386 -39.48469 -9.08654 -151.25305 67.98497 131.53513 12.35484 -0.04513 -0.04232 -6.95392 -70.55409 -17.95405 
29.39324 55.43286 -128.85628 14.06197 -0.83755 10.38725 -58.13609 67.93600 40.49389 -0.00276 -0.08844 -0.05850 -4.71451 -16.05423 20.50878 2.10395 0.29741 -5.82726 -131.48651 -45.18700 -108.11333 -42.67456 58.07735 -93.44698 6.08971 10.37181 5.39347 19.76563 3.98162 1.14602 78.35330 -52.61615 100.67352 79.10940 28.99256 106.89433 -4.05164 13.23056 -17.01518 -12.92766 -72.06783 -4.47447 86.41223 65.98685 -93.05570 26.63474 0.00142 -0.00568 -62.58422 -27.47770 -21.28020 -19.48659 -44.93842 -2.37915 -164.89735 64.04922 143.50949 16.32025 -0.05597 -0.01307 -5.24781 -65.29137 -15.16449 
